<svg width="628" height="582" viewBox="0 0 628 582" fill="none" xmlns="http://www.w3.org/2000/svg">
<path d="M37.056 562.96C32.384 562.96 28.032 562.064 24 560.272C20.032 558.48 16.544 556.048 13.536 552.976C10.464 549.904 8.064 546.32 6.336 542.224C4.672 538.064 3.84 533.456 3.84 528.4C3.84 523.536 4.704 518.992 6.432 514.768C8.16 510.544 10.528 506.896 13.536 503.824C16.544 500.752 20.032 498.32 24 496.528C28.032 494.736 32.384 493.84 37.056 493.84C41.728 493.84 46.144 494.8 50.304 496.72C54.528 498.64 58.368 501.552 61.824 505.456L55.776 510.448C50.272 504.432 44.032 501.424 37.056 501.424C33.472 501.424 30.176 502.128 27.168 503.536C24.16 504.944 21.472 506.864 19.104 509.296C16.8 511.728 14.976 514.576 13.632 517.84C12.352 521.04 11.712 524.56 11.712 528.4C11.712 532.304 12.352 535.888 13.632 539.152C14.976 542.352 16.8 545.136 19.104 547.504C21.472 549.936 24.16 551.856 27.168 553.264C30.176 554.672 33.472 555.376 37.056 555.376C44.032 555.376 50.272 552.368 55.776 546.352L61.824 551.344C58.368 555.248 54.528 558.16 50.304 560.08C46.144 562 41.728 562.96 37.056 562.96ZM111.897 562H104.313V533.392C104.313 529.04 103.097 525.872 100.665 523.888C98.233 521.84 95.033 520.816 91.065 520.816C88.825 520.816 86.713 521.296 84.729 522.256C82.809 523.152 81.241 524.336 80.025 525.808C78.809 527.28 78.201 528.752 78.201 530.224V562H70.617V494.8H78.201V518.704C79.929 516.784 82.105 515.44 84.729 514.672C87.353 513.904 89.817 513.552 92.121 513.616C98.329 513.872 103.161 515.696 106.617 519.088C110.137 522.48 111.897 527.248 111.897 533.392V562ZM161.573 562H153.989V557.008C152.709 558.928 150.885 560.368 148.517 561.328C146.149 562.288 143.557 562.8 140.741 562.864C137.925 562.992 135.173 562.672 132.485 561.904C129.797 561.072 127.525 559.824 125.669 558.16C123.749 556.496 122.245 554.384 121.157 551.824C120.133 549.264 119.621 546.32 119.621 542.992V514H127.301V542.992C127.301 547.408 128.549 550.64 131.045 552.688C133.605 554.736 136.869 555.76 140.837 555.76C142.821 555.76 144.805 555.312 146.789 554.416C148.837 553.52 150.533 552.144 151.877 550.288C153.285 548.368 153.989 545.936 153.989 542.992V514H161.573V562ZM213.254 562H205.67V533.488C205.67 530.416 204.998 527.952 203.654 526.096C202.374 524.24 200.71 522.928 198.662 522.16C196.678 521.328 194.598 520.912 192.422 520.912C190.31 520.912 188.198 521.36 186.086 522.256C184.038 523.152 182.31 524.528 180.902 526.384C179.494 528.24 178.79 530.608 178.79 533.488V562H171.206V514H178.79V519.184C180.262 517.2 182.278 515.76 184.838 514.864C187.398 513.904 190.054 513.424 192.806 513.424C196.518 513.424 199.91 514.192 202.982 515.728C206.118 517.264 208.614 519.536 210.47 522.544C212.326 525.488 213.254 529.136 213.254 533.488V562ZM243.429 581.584C240.549 581.584 237.669 581.008 234.789 579.856C231.973 578.768 229.605 577.328 227.685 575.536L232.485 570.16C234.725 571.824 237.253 572.976 240.069 573.616C242.949 574.32 245.605 574.32 248.037 573.616C250.533 572.976 252.357 571.536 253.509 569.296C254.213 567.824 254.693 566.32 254.949 564.784C255.205 563.248 255.333 561.328 255.333 559.024C251.301 561.328 247.269 562.416 243.237 562.288C239.269 562.16 235.621 561.104 232.293 559.12C228.965 557.072 226.277 554.32 224.229 550.864C222.181 547.344 221.093 543.344 220.965 538.864C220.837 533.552 221.701 529.04 223.557 525.328C225.413 521.616 227.973 518.768 231.237 516.784C234.501 514.8 238.213 513.776 242.373 513.712C246.597 513.584 250.949 514.512 255.429 516.496V514H263.109V560.944C263.109 567.28 261.477 572.304 258.213 576.016C254.949 579.728 250.021 581.584 243.429 581.584ZM228.549 538.864C228.613 542.32 229.445 545.232 231.045 547.6C232.645 549.904 234.757 551.632 237.381 552.784C240.005 553.936 242.885 554.448 246.021 554.32C249.157 554.128 252.293 553.232 255.429 551.632V524.08C250.181 521.712 245.509 520.72 241.413 521.104C237.381 521.424 234.213 523.088 231.909 526.096C229.605 529.04 228.485 533.296 228.549 538.864ZM271.778 556.432L276.29 551.536C278.274 553.008 280.258 554.16 282.242 554.992C284.226 555.76 286.242 556.112 288.29 556.048C289.506 556.048 290.658 555.888 291.746 555.568C292.834 555.248 293.858 554.704 294.818 553.936C296.034 553.04 296.834 551.888 297.218 550.48C297.666 549.072 297.666 547.728 297.218 546.448C296.706 545.04 295.778 543.92 294.434 543.088C293.09 542.256 291.49 541.552 289.634 540.976C287.842 540.336 285.954 539.696 283.97 539.056C282.05 538.352 280.258 537.488 278.594 536.464C275.714 534.544 273.858 532.368 273.026 529.936C272.194 527.44 272.194 525.008 273.026 522.64C273.922 520.208 275.49 518.16 277.73 516.496C280.034 514.832 282.882 513.872 286.274 513.616C289.538 513.424 292.706 513.808 295.778 514.768C298.85 515.728 301.25 517.072 302.978 518.8L298.178 523.408C296.578 522.32 294.85 521.52 292.994 521.008C291.138 520.496 289.346 520.24 287.618 520.24C285.57 520.304 283.81 520.784 282.338 521.68C280.93 522.576 280.13 524.016 279.938 526C279.81 527.856 280.418 529.328 281.762 530.416C283.106 531.44 284.962 532.368 287.33 533.2C289.698 533.968 292.258 534.864 295.01 535.888C298.21 537.168 300.674 539.024 302.402 541.456C304.194 543.824 304.738 546.864 304.034 550.576C303.586 554.032 302.178 556.752 299.81 558.736C297.506 560.72 294.69 561.968 291.362 562.48C288.034 562.992 284.61 562.768 281.09 561.808C277.634 560.784 274.53 558.992 271.778 556.432ZM353.105 562H345.521V557.008C344.241 558.928 342.417 560.368 340.049 561.328C337.681 562.288 335.089 562.8 332.273 562.864C329.457 562.992 326.705 562.672 324.017 561.904C321.329 561.072 319.057 559.824 317.201 558.16C315.281 556.496 313.777 554.384 312.689 551.824C311.665 549.264 311.153 546.32 311.153 542.992V514H318.833V542.992C318.833 547.408 320.081 550.64 322.577 552.688C325.137 554.736 328.401 555.76 332.369 555.76C334.353 555.76 336.337 555.312 338.321 554.416C340.369 553.52 342.065 552.144 343.409 550.288C344.817 548.368 345.521 545.936 345.521 542.992V514H353.105V562ZM420.614 562.864C416.39 562.864 412.262 562.032 408.23 560.368C404.262 558.704 400.934 556.656 398.246 554.224L404.102 548.848C406.47 550.768 409.126 552.304 412.07 553.456C415.014 554.544 417.798 555.088 420.422 555.088C423.046 555.088 425.446 554.576 427.622 553.552C429.862 552.528 431.654 551.12 432.998 549.328C434.342 547.472 435.046 545.328 435.11 542.896C435.174 539.824 434.086 537.36 431.846 535.504C429.606 533.648 426.15 532.144 421.478 530.992C416.934 529.84 412.966 528.432 409.574 526.768C406.182 525.04 403.59 522.864 401.798 520.24C400.006 517.616 399.27 514.352 399.59 510.448C400.038 505.264 402.182 501.296 406.022 498.544C409.926 495.728 415.046 494.32 421.382 494.32C424.454 494.32 427.686 494.704 431.078 495.472C434.534 496.176 437.766 497.392 440.774 499.12L435.686 505.264C433.446 504.304 431.142 503.536 428.774 502.96C426.406 502.32 424.006 501.968 421.574 501.904C419.206 501.904 416.934 502.224 414.758 502.864C412.646 503.44 410.918 504.432 409.574 505.84C408.23 507.184 407.526 509.008 407.462 511.312C407.462 513.68 408.102 515.6 409.382 517.072C410.662 518.48 412.39 519.632 414.566 520.528C416.742 521.424 419.174 522.256 421.862 523.024C426.406 524.24 430.214 525.584 433.286 527.056C436.422 528.528 438.79 530.48 440.39 532.912C441.99 535.344 442.79 538.672 442.79 542.896C442.79 546.672 441.766 550.064 439.718 553.072C437.734 556.08 435.046 558.48 431.654 560.272C428.326 562 424.646 562.864 420.614 562.864ZM455.911 541.264V521.104H447.559V514H455.911V494.8H463.495V514H471.943V521.104H463.495V541.264C463.495 545.36 463.623 548.368 463.879 550.288C464.199 552.144 464.807 553.328 465.703 553.84C466.599 554.352 467.911 554.64 469.639 554.704H472.039V562.288H469.927C466.983 562.288 464.583 562.032 462.727 561.52C460.871 560.944 459.431 559.92 458.407 558.448C457.447 556.976 456.775 554.864 456.391 552.112C456.071 549.36 455.911 545.744 455.911 541.264ZM521.386 562H513.802V557.008C512.522 558.928 510.698 560.368 508.33 561.328C505.962 562.288 503.37 562.8 500.554 562.864C497.738 562.992 494.986 562.672 492.298 561.904C489.61 561.072 487.338 559.824 485.482 558.16C483.562 556.496 482.058 554.384 480.97 551.824C479.946 549.264 479.434 546.32 479.434 542.992V514H487.114V542.992C487.114 547.408 488.362 550.64 490.858 552.688C493.418 554.736 496.682 555.76 500.65 555.76C502.634 555.76 504.618 555.312 506.602 554.416C508.65 553.52 510.346 552.144 511.69 550.288C513.098 548.368 513.802 545.936 513.802 542.992V514H521.386V562ZM547.819 561.904C543.979 561.456 540.715 560.112 538.027 557.872C535.403 555.632 533.419 552.784 532.075 549.328C530.731 545.808 530.059 541.872 530.059 537.52C530.059 532.848 530.891 528.72 532.555 525.136C534.283 521.488 536.747 518.64 539.947 516.592C543.211 514.48 547.147 513.424 551.755 513.424C553.611 513.424 555.531 513.552 557.515 513.808C559.563 514.064 561.771 514.8 564.139 516.016V494.8H571.723V562H564.139V557.488C562.347 559.024 559.979 560.272 557.035 561.232C554.091 562.192 551.019 562.416 547.819 561.904ZM564.139 551.056V523.216C559.531 521.296 555.211 520.56 551.179 521.008C547.211 521.456 543.979 523.088 541.483 525.904C538.987 528.656 537.739 532.528 537.739 537.52C537.739 541.552 538.475 544.944 539.947 547.696C541.483 550.384 543.531 552.368 546.091 553.648C548.651 554.928 551.467 555.376 554.539 554.992C557.675 554.608 560.875 553.296 564.139 551.056ZM585.536 578.512V571.024C587.392 571.024 589.12 570.608 590.72 569.776C592.32 569.008 593.664 567.952 594.752 566.608C595.84 565.328 596.48 563.888 596.672 562.288L578.528 514H586.88L601.28 553.072L614.816 514H623.264L606.368 559.216C604.96 563.184 603.392 566.576 601.664 569.392C599.936 572.272 597.792 574.48 595.232 576.016C592.736 577.616 589.504 578.448 585.536 578.512Z" fill="black"/>
<circle cx="314" cy="253" r="241" fill="#81CAFF"/>
<path d="M426.93 356.5C413.518 370.042 397.503 380.654 378.883 388.336C360.263 396.018 339.951 399.859 317.945 399.859C295.94 399.859 275.628 396.083 257.008 388.531C238.518 380.979 222.438 370.367 208.766 356.695C195.094 342.893 184.482 326.747 176.93 308.258C169.378 289.638 165.602 269.391 165.602 247.516C165.602 225.51 169.378 205.263 176.93 186.773C184.482 168.154 195.094 152.008 208.766 138.336C222.438 124.664 238.518 114.052 257.008 106.5C275.628 98.9479 295.94 95.1719 317.945 95.1719C339.82 95.1719 360.068 99.013 378.688 106.695C397.307 114.247 413.323 124.794 426.734 138.336L402.711 162.75C392.294 151.161 379.794 142.112 365.211 135.602C350.628 128.961 334.677 125.641 317.359 125.641C300.562 125.641 285.068 128.701 270.875 134.82C256.682 140.81 244.312 149.339 233.766 160.406C223.349 171.344 215.211 184.234 209.352 199.078C203.622 213.922 200.758 230.068 200.758 247.516C200.758 265.094 203.622 281.305 209.352 296.148C215.211 310.862 223.349 323.753 233.766 334.82C244.312 345.758 256.682 354.286 270.875 360.406C285.068 366.396 300.562 369.391 317.359 369.391C334.677 369.391 350.628 366.135 365.211 359.625C379.794 352.984 392.294 343.87 402.711 332.281L426.93 356.5Z" fill="#F1F3F8"/>
<path d="M214.394 361.841L230.788 335.803C239.146 342.618 247.504 348.276 255.861 352.776C264.219 357.276 272.705 360.619 281.32 362.805C290.064 364.991 298.936 366.084 307.937 366.084C321.052 366.084 332.495 363.898 342.268 359.526C352.168 355.155 359.883 349.111 365.412 341.396C370.941 333.553 373.706 324.552 373.706 314.395C373.706 303.337 370.555 294.207 364.255 287.007C358.083 279.678 350.047 273.442 340.146 268.298C330.245 263.155 319.702 258.269 308.515 253.64C299.129 249.654 289.807 245.411 280.549 240.911C271.291 236.41 262.869 231.203 255.283 225.288C247.825 219.245 241.846 211.98 237.346 203.494C232.845 195.007 230.595 184.785 230.595 172.827C230.595 157.526 234.453 144.025 242.167 132.324C249.882 120.623 260.555 111.494 274.184 104.937C287.942 98.3789 303.758 95.1001 321.63 95.1001C333.717 95.1001 345.868 96.7074 358.083 99.9219C370.298 103.008 382.128 107.572 393.571 113.616L379.685 141.389C370.684 136.117 361.233 132.067 351.333 129.238C341.56 126.41 331.917 124.995 322.402 124.995C311.087 124.995 301.122 126.924 292.507 130.781C284.021 134.51 277.334 139.782 272.448 146.597C267.691 153.283 265.312 161.126 265.312 170.127C265.312 180.156 268.205 188.578 273.991 195.393C279.906 202.208 287.492 208.123 296.75 213.137C306.136 218.023 316.037 222.781 326.452 227.41C336.353 231.781 346.125 236.41 355.769 241.296C365.541 246.054 374.348 251.711 382.192 258.269C390.164 264.698 396.529 272.413 401.286 281.414C406.044 290.414 408.422 301.279 408.422 314.009C408.422 330.339 404.308 344.675 396.079 357.019C387.849 369.234 376.277 378.749 361.362 385.564C346.575 392.379 329.217 395.786 309.287 395.786C291.8 395.786 275.148 392.957 259.333 387.3C243.518 381.642 228.538 373.156 214.394 361.841Z" fill="#F1F3F8"/>
<circle cx="314" cy="311" r="13" fill="white"/>
<circle cx="37.5" cy="527.5" r="6.5" fill="black"/>
</svg>
